<?xml version="1.0" encoding="utf-8"?>
<!-- Generator: Adobe Illustrator 14.0.0, SVG Export Plug-In . SVG Version: 6.00 Build 43363)  -->
<!DOCTYPE svg PUBLIC "-//W3C//DTD SVG 1.1//EN" "http://www.w3.org/Graphics/SVG/1.1/DTD/svg11.dtd">
<svg version="1.1" id="Layer_1" xmlns="http://www.w3.org/2000/svg" xmlns:xlink="http://www.w3.org/1999/xlink" x="0px" y="0px"
	 width="600px" height="600px" viewBox="0 0 600 600" enable-background="new 0 0 600 600" xml:space="preserve">
<ellipse fill="#F7D917" stroke="#8B5E3C" stroke-width="20" cx="300.239" cy="299.738" rx="196.827" ry="197.327"/>
<ellipse fill="none" stroke="#8B5E3C" stroke-width="20" cx="300.793" cy="299.713" rx="160.272" ry="160.353"/>
<ellipse fill="#F7D917" stroke="#8B5E3C" stroke-width="20" cx="300.928" cy="298.848" rx="124.138" ry="124.218"/>
<ellipse fill="#F7D917" stroke="#8B5E3C" stroke-width="20" cx="301.222" cy="299.563" rx="88.844" ry="88.503"/>
<ellipse fill="#F7D917" stroke="#8B5E3C" stroke-width="20" cx="301.356" cy="300.276" rx="52.709" ry="52.789"/>
<rect x="-261.479" y="62.151" fill="none" stroke="#222121" width="0" height="0"/>
<g id="XMLID_1_">
	<g>
		<path fill="#8B5E3C" d="M299.978,276.787c12.28,0,22.23,9.95,22.23,22.23c0,12.27-9.95,22.229-22.23,22.229
			c-12.27,0-22.22-9.96-22.22-22.229C277.758,286.736,287.708,276.787,299.978,276.787z"/>
	</g>
	<g>
		<path fill="none" stroke="#8B5E3C" d="M322.208,299.017c0-12.28-9.95-22.23-22.23-22.23c-12.27,0-22.22,9.95-22.22,22.23
			c0,12.27,9.95,22.229,22.22,22.229C312.258,321.246,322.208,311.286,322.208,299.017z"/>
	</g>
</g>
<g>
	<g>
		<g>
			<path fill="#8B5E3C" d="M412.493,134.513c0.387,0.741,2.268,2.075,0.846,1.077C412.36,134.563,411.641,133.774,412.493,134.513z"
				/>
			<path fill="#8B5E3C" d="M461.58,88.244c5.9,7.043-1.391,1.258,2.109,6.011c0.2,0.347-3.527-3.565-2.84-2.546
				c4.423,5.637,0.467,3.594-4.15,0.455l-0.958-1.047c-0.861-0.581,2.281,2.906,1.668,2.591c-0.664-0.662-0.897-0.992-1.843-1.869
				c1.968,2.042,0.658,1.198,2.086,2.752c-0.838-0.72-2.423-2.316-3.377-3.119l2.193,2.364c5.189,5.665-0.95,0.204,1.526,3.329
				c-0.515-0.546-0.896-0.993-1.437-1.48c2.778,3.818,1.515,3.856,2.143,5.647c-0.781-0.827-2.227-2.315-3.172-3.192
				c2.375,2.432,2.8,3.216,3.116,3.845c-2.539-2.399,1.986,2.521,0.444,1.345l-0.53-0.563c2.45,2.721-1.692-1.291,1.297,1.918
				l-2.024-1.854c3.421,3.54-2.002-1.611-0.341,0.274l0.717,0.709c0.739,0.95-1.063-0.743-0.573-0.057l-0.406-0.389
				c0.683,1.14-1.39-0.666,1.334,2.046c-2.26-2.099-0.772-1.216-4.064-4.255c2.049,3.553,0.727,3.782,0.019,4.589
				c-1.18-1.008-1.566-1.284-2.613-2.292c0.472,0.623,0.213,0.782,1.536,2.243c-0.032-0.083-1.441-1.343-1.614-1.436
				c-1.165-0.89,2.833,3.134,1.464,2.067c-0.661-0.781-1.519-1.68-2.55-2.671c1.992,2.25,1.479,2.083,2.015,2.923
				c-0.432-0.479-0.668-0.79-1.527-1.637c2.236,2.57-0.81-0.201,0.561,1.461l-1.512-1.621c-2.142-1.671,3.212,3.351,1.882,2.427
				c-0.448-0.546-1.079-1.142-1.708-1.789c2.66,3.041,1.408,2.403,2.188,3.562c-0.204-0.227-0.638-0.655-0.638-0.655
				c0.149,0.563-0.953-0.108,0.063,1.362c-0.778-0.613-3.802-3.855-3.439-3.057c3.156,3.141,0.922,1.663,4.613,5.098
				c-0.7-0.327-2.181-1.217-1.235-0.023c-1.109-1.277-3.936-3.754-4.046-4.175l-2.031-1.797c-1.268-1.302,0.56,0.319-1.102-1.268
				c0.055,0.21,1.071,1.68,0.488,1.235c1.786,2.075,5.259,5.812,5.423,6.442c-1.116-1.336-3.534-3.41-3.998-4.023l5.707,6.358
				c0.072,0.227-2.502-2.469-1.794-1.537c0.843,0.831,1.308,1.394,1.953,2.107c-0.395-0.335,0.456,1.102-2.677-1.964
				c-1.244-1.176-0.521-0.773-1.717-1.797c-0.109,0.176,0.944,1.243,0.852,1.437l-0.418-0.412c-0.559-0.37,1.039,1.596,2.857,3.209
				c0.165,0.033-1.89-1.84-0.889-1.034c1.731,1.865,2.07,2.537,1.96,2.713c-0.448-0.546-1.282-1.369-2.142-2.267
				c2.244,2.628,2.811,3.603,3.614,4.837c1.472,1.479-2.604-2.765-1.794-2.018c-2.322-1.771,2.332,3.469-0.889,0.707
				c-0.22-0.294,2.116,2.076,1.699,1.665c-0.314-0.05-2.446-2.194-1.746-1.32c-1.26-1.243,0.298,0.515,0.59,0.985
				c0.856,0.949-0.637-0.59-0.691-0.8c0.937,1.185,2.362,3.604,0.253,2.067c0.834,0.823,2.865,3.217,2.708,3.192l-1.913-1.965
				c-1.221-1.1-0.056,0.386-1.724-1.26c2.213,2.494-1.463-2.547,0.161-0.542c-1.665-1.566,2.825,3.356,0.223,0.672
				c-0.058,0.207,1.994,2.515,0.053,0.826c0.352,0.278-2.586-2.8-2.552-2.553c0.16,0.536,0.875,0.981,1.368,1.781l0.7,0.891
				c1.883,1.896-0.426-0.088,1.758,1.955c-1.581-1.535,0.688,1.234-2.426-1.917l-2.443-2.496c0.102,0.264,2.469,2.735,3.491,3.885
				c-0.235-0.213-0.754-0.689-1.147-1.091c3.766,3.792-0.509-0.121,2.312,2.893c-1.479-1.139-0.55,0.317-2.983-1.956
				c1.012,1.275,2.252,2.753,1.29,2.091c-0.326-0.386-0.394-0.535-1.197-1.355c-1.204-1.017-0.233,0.001,0.294,0.7
				c-0.544-0.583-2.399-2.024-3.839-3.254c0.997,1.257,3.08,3.25,4.311,4.507c-3.849-3.61,2.034,2.771-1.495-0.46
				c-0.469-0.559-1.642-2.022-2.687-2.85c-3.839-3.602,2.511,2.991,0.529,1.394l3.138,3.043c-1.999-1.829,1.516,2.081-1.613-1.087
				c1.046,1.175-1.254-0.801,1.783,2.194c-2.867-2.237,0.773,2.309-4.831-2.909c0.46,0.551-0.166,0.15,1.406,1.676
				c1.758,1.607-1.097-1.306,0.075-0.191c0.051,0.132,0.87,0.969,1.28,1.388c-0.786-0.59-1.078-0.728-3.496-3.332
				c-2.083-1.646,4.903,5.354,3.449,4.456c-1.238-1.264-1.732-1.715-1.614-1.435l1.983,2.292c-0.677-0.317-2.944-2.74-5.062-4.849
				c0.269,0.46,0.052,0.479,1.583,2.097l-2.769-2.535c1.999,1.829,1.197,1.355,1.666,1.914l-0.469-0.559
				c-0.921-0.886-0.477-0.219-0.268,0.102c1.322,1.295,1.966,1.713,2.409,2.032c0.879,0.977,0.587,0.838,1.616,1.997
				c-2.051-2.093-1.632-1.318-1.924-1.458c-0.534-0.36,1.758,1.955,1.666,1.914c-1.08-1.075-0.325-0.04-1.765-1.616
				c-0.318-0.378,1.112,0.976,0.217-0.019c-0.861-0.746-2.728-2.625-1.48-1.138c0.938,1.118,4.117,4.07,2.637,2.932
				c-0.469-0.559-1.289-1.396-2-2.176l-1.237-0.917l1.882,1.896c-0.502-0.459-0.653-0.64-0.911-0.878
				c1.94,2.037,0.368,0.858,2.569,3.131c0.118,0.28-1.479-1.139-1.772-1.277l-0.15-0.181c-1.205-1.016-0.601-0.162,0.596,1.194
				l-0.41-0.418c-0.2-0.098-0.023,0.322,1.021,1.498c-1.555-1.295-7.178-7.091-4.943-4.569c-0.065,0.198,3.257,3.67,4.52,4.827
				c-1.514-1.039,1.3,2.313-1.854-0.4c0.728,0.797,1.23,1.256,1.607,1.774c-1.095-0.397,1.501,2.973-2.488-0.462
				c-0.694-0.896-1.883-1.896-2.962-2.971c1.607,1.773-1.857-1.657,1.014,1.273c1.715,1.699,2.535,2.536,3.321,3.125
				c0.712,1.127,0.396,1.444-1.311-0.032c0.845,0.73,1.322,1.297,1.79,1.855c-2.711-2.741-3.271-2.994-2.425-1.917l1.641,1.673
				l-1.782-1.631c0.485,0.575,3.431,3.53,1.725,2.054c-0.652-0.64-1.313-1.288-1.807-1.739c1.239,1.479,3.373,3.952,1.834,2.673
				l-2.525-2.313c0.209,0.321,1.573,1.873,2.368,2.471c-1.681-1.236-2.007-1.275-4.173-3.301c4.721,5.487,4.373,6.25,3.563,6.331
				l-1.23-1.256c-1.279-1.041,2.109,2.233,1.164,1.455c-1.146-1.224-2.668-2.486-4.024-4.03c-1.48-1.138,1.934,2.375,2.387,3.049
				c1.615,1.649-0.955-1.134,1.095,0.959c0.562,0.599-1.513-1.039,0.931,1.457c-1.013-0.926-2.794-2.775-3.773-3.8l1.097,1.306
				c-3.011-2.756-4.862-5.445-8.552-8.866l0.293,0.485c-2.677-2.493-2.662-3.171-3.79-3.816c1.113,1.323,4.604,4.992,5.79,5.993
				c0.461,0.898,5.782,5.984,5.341,6.012c-1.515-1.386-0.16-0.536-2.235-2.521c-2.1-1.878,0.889,1.332,0.094,0.734
				c1.037,0.819,3.439,3.405,3.824,3.932c-1.288-1.049-2.259-2.415-2.686-2.502c1.397,1.453,2.312,2.678,3.44,3.538
				c3.17,3.293-1.071-0.719,1.339,1.875c-2.325-2.215-5.079-5.428-6.4-6.377c2.217,2.158,2.745,3.204,6.092,6.354
				c-0.702-0.557-2.434-2.272-3.723-3.668c-1.455-1.247,3.741,4.246-0.635-0.062l2.201,2.273c-0.762-0.696-1.355-1.197-2.618-2.354
				c-0.133,0.05,2.737,3.328-0.635-0.061c0.318,0.377-0.04,0.438,2.377,2.694c1.556,1.295-1.557-1.857,1.673,1.228
				c-2.669-2.485,0.151,0.527,0.938,1.464l-1.321-1.297c0.469,0.559,0.075,0.372,1.465,1.816c-0.712-0.78-1.625-1.657-1.975-1.937
				l1.941,2.036c0.813,1.176-3.54-3.454-3.137-2.697l-1.407-1.676c0.302,0.361-1.622-1.443-1.086-0.737
				c1.782,1.848,3.899,4.089,5.279,5.526c0.696,0.896-2.091-2.002-0.325-0.04l-2.059-2.316c-0.577-0.616-3.086-2.913-3.17-2.73
				c0.545,0.715,3.031,3.465,4.159,4.326c-0.033,0.1-1.237-0.917-2.51-2.295c0.478,0.781,1.976,1.936,2.972,3.193
				c-1.264-1.156-3.153-2.713-5.011-4.37l-2.905-3.177l-0.115,0.065c-2.318-2.553-1.916-1.796-4.418-4.432
				c-0.46-0.335,0.335,0.61,0.946,1.341c4.292,3.929,5.415,5.821,9.214,9.514c0.778,1.276-9.271-8.959-3.663-2.833
				c1.021,0.935,3.749,3.908,2.819,2.666c-0.56-0.251,3.657,3.867,1.926,2.5c-1.406-1.676-3.94-3.65-5.982-6.083
				c1.229,1.256,1.054,0.836,0.735,0.458c-1.506-1.378-3.766-3.792-3.924-3.634c0.26,0.453,0.202,0.659,2.178,2.596
				c2.149,2.143-0.085-0.379,2.023,1.854c0.554,0.938-2.743-2.294,0.989,1.597c-0.186-0.428,2.058,1.754,3.53,3.231l0.754,1.036
				l-1.397-1.452c-1.254-0.801,2.519,2.652,1.918,2.49l-2.921-2.715c-2.375-2.48,1.396,0.758-2.595-3.155
				c-0.3-0.015,1.657,2.038,0.504,1.153c-0.31-0.37-0.368-0.51-0.687-0.888c-0.184-0.081-5.472-5.268-2.608-1.998
				c1.088,1.298,1.381,1.436,2.853,2.914c0.219,0.677,1.658,2.253,1.743,2.633c-2.854-2.914-0.542-0.021-3.329-3.134
				c1.765,1.616,1.931,1.119-0.74-1.713c-3.505-3.339,0.661,0.301-2.754-3.211c-0.267,0.1-3.621-3.273-5.855-5.448
				c-0.208-0.106,0.679,0.879,0.988,1.25c2.059,2.102,2.092,2.002,4.233,4.136c-0.769-0.359,0.194,0.999,2.104,3.134
				c-1.096-0.959-3.146-3.053-3.264-3.333c0.369,0.857-0.173,0.835-1.034,0.437c3.539,3.24,0.538,1.054,3.457,3.769
				c0.887,0.638,3.404,2.943,4.853,4.528c-0.293-0.138-1.48-1.486-2.234-2.174c1.749,1.947-3.12-2.813-0.3,0.201
				c-0.871-1.316-4.084-4.17-6.694-6.862c1.331,1.652-1.882-1.896-2.041-1.737c1.315,1.635,2.278,2.991,2.673,3.741
				c-2.734-2.288-0.607,0.524-0.707,0.823c-1.447-1.238-4.376-4.309-5.012-4.717c-0.074,0.191,3.339,3.142,1.767,1.963l-0.577-0.616
				c0.636,0.755-2.399-1.678,1.851,2.689l-3.188-3.309c-0.335-0.262,0.377,0.518,0.694,0.896c-1.062-1.059-2.065-1.978-2.702-2.733
				c-2.358-2.116,0.102,0.611,0.061,0.834l2.008,1.837c1.282,1.734-0.775-0.021-0.323,0.87l-1.874-1.888l0.997,1.257
				c-1.791-1.855-3.087-2.912-1.631-1.319l-4.27-4.945c1.204,1.017,2.168,2.373,4.083,4.17c1.674,1.574,1.362,0.858-0.42-0.989
				c-0.284-0.13,0.127,0.288,0.746,1.028c-2.645-2.593-2.427-2.611-4.117-4.417c0.066,0.148-0.786-0.59,0.033,0.248
				c-1.196-1.356-1.314-1.635-1.248-1.834c0.938,1.117,1.673,1.575,2.385,2.355c-2.293-2.314-2.879-3.154-2.068-2.671
				c2.785,2.551-1.407-2.023-0.479-1.476c2.259,2.414,4.033,4.385,4.862,5.445c1.288,1.049,0.066-0.199,1.363,0.858
				c-1.683-1.798-4.31-4.507-5.215-5.724l1.732,1.715c-0.737-1.019-3.29-3.571-2.63-3.271c1.153,0.538,1.47,0.221,1.92,0.202
				l1.725,1.707c-3.549-3.81-0.924-1.794-2.381-3.603c1.957,1.358-0.99-2.291,2.129,0.522c-0.797-1.854-1.628-3.608-0.451-3.525
				l2.41,2.594c-1.741-1.938,1.506,1.378,1.229,0.909c-2.107-1.886-2.46-2.727-3.926-4.328c2.191,1.704,0.383-0.73-1.158-2.703
				l1.732,1.715c-3.014-3.45,0.081-0.876,0.883-0.618c0.744,0.682,2.409,2.248,2.3,1.977c-2.637-2.932-2.361-2.81-3.885-4.767
				c0.158-0.158,1.103,0.273,2.348,1.199c-3.316-4.505-0.207-2.61-1.942-5.581l2.066,1.978c-3.727-4.924,0.938-1.733-0.772-4.465
				l3.406,3.505c1.229,0.909-0.538-1.269-3.031-3.68c1.221,0.9-1.273-2.075,1.671,0.665c0.803,0.474-1.398-1.8-1.726-2.401
				c1.638,0.98,1.462,0.561,1.125-0.396l-0.292-0.138c0.729,0.796,2.191,2.266,2.493,2.413c-0.846-1.077,1.354,0.502-2.889-3.509
				c2.718,2.056-1.167-2.711,2.37,0.182c-1.154-1.1-1.288-1.396-2.017-2.193c0.24-0.34,2.85,1.658,1.158-0.496
				c0.609,0.517,1.849,1.996,2.083,1.994c-0.36-0.501-1.474-1.477-2.017-2.192c-1.634-2.576,3.124,1.218,3.004,0.244
				c-1.418-2.939,0.477-2.631,0.841-3.724l0.82,0.837c-2.921-3.409,3.813,2.667-0.758-2.292c0.846,0.729,0.594,0.152,2.15,1.794
				c-2.043-2.432,2.648,1.561,0.087-1.562c-0.101-0.049,0.051,0.131,0.377,0.518c2.115,1.548-0.137-1.205,1.819,0.153
				c0.326,0.387,0.528,0.699,1.348,1.537c1.707,1.475-3.223-3.771,0.835,0.16c0.033-0.1-1.958-2.053-1.883-1.896
				c2.213,0.902,0.36-2.35,0.132-3.943c2.875,1.897,6.758,6.699,4.16,3.33c0.803,0.739-1.502-1.548-0.668-0.724
				c-0.969-1.268,4.69,4.225,2.706,2.034c-2.495-2.41-1.307-1.444-2.795-2.939c1.89,1.292,4.162,3.444,2.534,1.344l1.274,1.311
				c-3.369-3.923-1.094-2.288-5.069-6.73c0.763-2.288-0.112-6.086,0.886-8.062c2.273-0.666,1.823-3.995,5.553-3.25
				c3.739,3.04,3.674,2.922,2.683,1.163c0.531,0.563,0.64,0.719,1.18,1.207c-2.766-2.803,0.005-0.536-2.61-3.224
				c1.065-0.038,0.812-1.309,1.362-1.893c0.209,0.388,2.435,2.704,2.359,2.415l-1.662-1.885l0.797,0.761
				c-0.341-0.487-1.638-1.942-2.607-2.762c-0.977-3.829,6.011,0.353,6.72-1.732c1.492,0.829,0.903-0.704,0.692-1.637
				c4.78,2.645,8.734,4.673,7.227,0.994C453.32,78.804,460.371,86.138,461.58,88.244z"/>
			<path fill="#8B5E3C" d="M412.426,134.017c1.43,1.354,2.316,1.992,4.073,3.947C415.178,136.667,413.655,135.273,412.426,134.017z"
				/>
			<path fill="#8B5E3C" d="M430.062,145.019c-0.41-0.418,0.61,0.517,0.845,0.729c0.067,0.148,1.197,1.355,0.443,0.667
				C431.292,146.274,430.622,145.618,430.062,145.019z"/>
			<path fill="#8B5E3C" d="M431.738,145c1.222,1.248,2.026,2.415,2.068,2.671L431.738,145z"/>
			<path fill="#8B5E3C" d="M437.633,149.314c1.112,0.976,1.665,1.566,1.54,1.625C438.512,150.291,438.211,149.929,437.633,149.314z"
				/>
			<path fill="#8B5E3C" d="M434.871,146.44c0.033-0.099,0.795,0.598,1.539,1.279C435.339,146.652,436.921,148.534,434.871,146.44z"
				/>
			<path fill="#8B5E3C" d="M440.184,148.321c-0.059-0.141-0.997-1.257,0.417,0.08C439.597,147.483,441.966,150.168,440.184,148.321z
				"/>
			<path fill="#8B5E3C" d="M439.107,145.651c0.109,0.057,0.344,0.27,0.033-0.1c0.611,0.516,1.464,1.469,1.54,1.625L439.107,145.651z
				"/>
			<polygon fill="#8B5E3C" points="448.649,126.166 449.177,126.866 447.963,125.626 			"/>
			<path fill="#8B5E3C" d="M454.943,119.74c-0.693-0.865,1.22,1.1,1.416,1.268C456.414,121.219,454.863,119.455,454.943,119.74z"/>
			<polygon fill="#8B5E3C" points="452.19,110.129 452.197,110.188 449.671,107.644 			"/>
		</g>
	</g>
</g>
<g>
	<path fill="#009546" stroke="#009546" d="M412.602,121.997c4.924-33.38,35.425-56.478,68.195-51.644"/>
	<path fill="#009546" stroke="#009546" d="M481.696,71.047c18.777,16.382,50.968,6.266,71.971-22.617"/>
	<path fill="#009546" stroke="#009546" d="M554.06,49.482c-7.725,48.219-70.753,77.979-140.919,66.535"/>
	<line fill="none" stroke="#009546" stroke-width="10" x1="440.248" y1="101.664" x2="491.467" y2="73.217"/>
</g>
</svg>
